<?xml version="1.0" encoding="UTF-8" standalone="no"?>
<!-- Created with Inkscape (http://www.inkscape.org/) -->

<svg
   xmlns:dc="http://purl.org/dc/elements/1.1/"
   xmlns:cc="http://creativecommons.org/ns#"
   xmlns:rdf="http://www.w3.org/1999/02/22-rdf-syntax-ns#"
   xmlns:svg="http://www.w3.org/2000/svg"
   xmlns="http://www.w3.org/2000/svg"
   xmlns:xlink="http://www.w3.org/1999/xlink"
   xmlns:sodipodi="http://sodipodi.sourceforge.net/DTD/sodipodi-0.dtd"
   xmlns:inkscape="http://www.inkscape.org/namespaces/inkscape"
   id="svg2816"
   version="1.1"
   inkscape:version="0.47 r22583"
   width="70"
   height="172"
   sodipodi:docname="ftk-si.svg"
   inkscape:export-filename="/home/flo/Projects/html: flo/images/ftk-si-stripes.png"
   inkscape:export-xdpi="90"
   inkscape:export-ydpi="90">
  <metadata
     id="metadata2822">
    <rdf:RDF>
      <cc:Work
         rdf:about="">
        <dc:format>image/svg+xml</dc:format>
        <dc:type
           rdf:resource="http://purl.org/dc/dcmitype/StillImage" />
        <dc:title />
      </cc:Work>
    </rdf:RDF>
  </metadata>
  <defs
     id="defs2820">
    <inkscape:path-effect
       effect="vonkoch"
       id="path-effect2973"
       is_visible="true"
       ref_path="m 13,128.5 44,0"
       generator="m 13,159 14.666667,0 M 42.333333,159 57,159"
       similar_only="false"
       nbgenerations="1"
       drawall="true"
       maxComplexity="1000" />
    <inkscape:path-effect
       effect="ruler"
       id="path-effect2969"
       is_visible="false"
       unit="px"
       mark_distance="20"
       mark_length="14"
       minor_mark_length="7"
       major_mark_steps="5"
       shift="0"
       offset="0"
       mark_dir="left"
       border_marks="both" />
    <inkscape:perspective
       sodipodi:type="inkscape:persp3d"
       inkscape:vp_x="0 : 0.5 : 1"
       inkscape:vp_y="0 : 1000 : 0"
       inkscape:vp_z="1 : 0.5 : 1"
       inkscape:persp3d-origin="0.5 : 0.33333333 : 1"
       id="perspective2824" />
    <inkscape:perspective
       id="perspective3023"
       inkscape:persp3d-origin="0.5 : 0.33333333 : 1"
       inkscape:vp_z="1 : 0.5 : 1"
       inkscape:vp_y="0 : 1000 : 0"
       inkscape:vp_x="0 : 0.5 : 1"
       sodipodi:type="inkscape:persp3d" />
    <inkscape:perspective
       id="perspective5333"
       inkscape:persp3d-origin="0.5 : 0.33333333 : 1"
       inkscape:vp_z="1 : 0.5 : 1"
       inkscape:vp_y="0 : 1000 : 0"
       inkscape:vp_x="0 : 0.5 : 1"
       sodipodi:type="inkscape:persp3d" />
    <inkscape:perspective
       id="perspective4402"
       inkscape:persp3d-origin="0.5 : 0.33333333 : 1"
       inkscape:vp_z="1 : 0.5 : 1"
       inkscape:vp_y="0 : 1000 : 0"
       inkscape:vp_x="0 : 0.5 : 1"
       sodipodi:type="inkscape:persp3d" />
    <linearGradient
       inkscape:collect="always"
       xlink:href="#linearGradient4386-1"
       id="linearGradient4392-4"
       x1="49.334679"
       y1="142.91797"
       x2="14.548621"
       y2="94.217491"
       gradientUnits="userSpaceOnUse" />
    <linearGradient
       inkscape:collect="always"
       id="linearGradient4386-1">
      <stop
         style="stop-color:#ff4f00;stop-opacity:1;"
         offset="0"
         id="stop4388-6" />
      <stop
         style="stop-color:#ff4f00;stop-opacity:0;"
         offset="1"
         id="stop4390-5" />
    </linearGradient>
    <inkscape:perspective
       id="perspective5130"
       inkscape:persp3d-origin="0.5 : 0.33333333 : 1"
       inkscape:vp_z="1 : 0.5 : 1"
       inkscape:vp_y="0 : 1000 : 0"
       inkscape:vp_x="0 : 0.5 : 1"
       sodipodi:type="inkscape:persp3d" />
    <linearGradient
       inkscape:collect="always"
       xlink:href="#linearGradient4386-8"
       id="linearGradient4392-3"
       x1="49.334679"
       y1="142.91797"
       x2="14.548621"
       y2="94.217491"
       gradientUnits="userSpaceOnUse" />
    <linearGradient
       inkscape:collect="always"
       id="linearGradient4386-8">
      <stop
         style="stop-color:#ff4f00;stop-opacity:1;"
         offset="0"
         id="stop4388-5" />
      <stop
         style="stop-color:#ff4f00;stop-opacity:0;"
         offset="1"
         id="stop4390-2" />
    </linearGradient>
    <inkscape:perspective
       id="perspective5341"
       inkscape:persp3d-origin="0.5 : 0.33333333 : 1"
       inkscape:vp_z="1 : 0.5 : 1"
       inkscape:vp_y="0 : 1000 : 0"
       inkscape:vp_x="0 : 0.5 : 1"
       sodipodi:type="inkscape:persp3d" />
    <inkscape:perspective
       id="perspective5363"
       inkscape:persp3d-origin="0.5 : 0.33333333 : 1"
       inkscape:vp_z="1 : 0.5 : 1"
       inkscape:vp_y="0 : 1000 : 0"
       inkscape:vp_x="0 : 0.5 : 1"
       sodipodi:type="inkscape:persp3d" />
    <inkscape:perspective
       id="perspective5435"
       inkscape:persp3d-origin="0.5 : 0.33333333 : 1"
       inkscape:vp_z="1 : 0.5 : 1"
       inkscape:vp_y="0 : 1000 : 0"
       inkscape:vp_x="0 : 0.5 : 1"
       sodipodi:type="inkscape:persp3d" />
    <inkscape:perspective
       id="perspective5504"
       inkscape:persp3d-origin="0.5 : 0.33333333 : 1"
       inkscape:vp_z="1 : 0.5 : 1"
       inkscape:vp_y="0 : 1000 : 0"
       inkscape:vp_x="0 : 0.5 : 1"
       sodipodi:type="inkscape:persp3d" />
    <inkscape:perspective
       id="perspective5561"
       inkscape:persp3d-origin="0.5 : 0.33333333 : 1"
       inkscape:vp_z="1 : 0.5 : 1"
       inkscape:vp_y="0 : 1000 : 0"
       inkscape:vp_x="0 : 0.5 : 1"
       sodipodi:type="inkscape:persp3d" />
  </defs>
  <sodipodi:namedview
     pagecolor="#ffffff"
     bordercolor="#666666"
     borderopacity="1"
     objecttolerance="10"
     gridtolerance="10"
     guidetolerance="10"
     inkscape:pageopacity="1"
     inkscape:pageshadow="2"
     inkscape:window-width="1920"
     inkscape:window-height="1149"
     id="namedview2818"
     showgrid="false"
     inkscape:zoom="2.7441861"
     inkscape:cx="13.177715"
     inkscape:cy="37.114335"
     inkscape:window-x="0"
     inkscape:window-y="24"
     inkscape:window-maximized="1"
     inkscape:current-layer="svg2816" />
  <rect
     style="fill:#000000;fill-opacity:1;stroke:none"
     id="rect5402"
     width="62"
     height="75"
     x="4"
     y="93" />
  <path
     style="fill:#ff6600;fill-opacity:1;fill-rule:nonzero;stroke:none"
     d="m 13.172964,99.934977 0,8.187503 13.125,0 0,9.125 -8.9375,0 0,-4.1875 -4.1875,0 0,9.09374 13.125,0 0,3.84375 -13.3125,0 0,4.1875 13.3125,0 0,13.125 -9.125,0 0,-8.03125 -4,0 0,12.9375 9.09375,0 0,4 3.84375,0 0,4.9375 8.9375,0 0,3.8125 9.093747,0 0,-4 4,0 0,-4.75 4.21875,0 0,4.9375 4.71875,0 0,-8.9375 -4.90625,0 0,-4.90625 -4.03125,0 0,-13.125 4.21875,0 0,4.71875 4.1875,0 0,-8.71875 -4.375,0 0,-4.03125 -4.03125,0 0,-17.56249 -31.156247,-0.0937 0,-4.562503 -3.8125,0 z m 21.96875,8.187503 9.031247,0 0,8.90625 -9.031247,0 0,-8.90625 z m 0,27.28124 9.031247,0 0,8.90625 -9.031247,0 0,-8.90625 z"
     id="path2976" />
  <path
     style="fill:#ff6600;fill-opacity:1;stroke:none"
     d="m 53.561028,133.05483 c -0.61545,-1.04406 -1.11901,-2.10394 -1.11901,-2.35528 0,-0.26926 -0.11776,-0.4812 -0.28668,-0.51591 -0.25552,-0.0525 -1.61923,-2.31199 -6.48813,-10.74991 l -1.43786,-2.49185 0.0523,-1.78569 0.0523,-1.7857 1.72849,3.00212 c 1.7155,2.97956 1.72919,3.01308 1.82203,4.45975 l 0.0935,1.45763 0.81708,0.0911 0.81708,0.0911 2.09817,3.65139 c 1.154,2.00827 2.69262,4.65769 3.41915,5.8876 0.72654,1.22991 1.32098,2.39499 1.32098,2.58907 0,0.30061 -0.13111,0.35287 -0.88523,0.35287 l -0.88523,0 -1.11901,-1.89829 0,0 z"
     id="path5166" />
  <path
     style="fill:#ffb17e;fill-opacity:1;stroke:none"
     d="m 37.962808,106.31979 c -0.55444,-0.87546 -1.00808,-1.63739 -1.00808,-1.69318 0,-0.0558 0.52817,-0.10144 1.1737,-0.10144 l 1.17369,0 1.01275,1.59912 c 0.55701,0.87951 1.01275,1.64145 1.01275,1.69319 0,0.0518 -0.53027,0.0941 -1.17837,0.0941 l -1.17836,0 -1.00808,-1.59176 0,0 z"
     id="path5168" />
  <path
     style="fill:#ffb17e;fill-opacity:1;stroke:none"
     d="m 47.215158,106.47695 c -1.16647,-2.01147 -1.16413,-1.95178 -0.0765,-1.95178 l 0.93051,0 0,1.63983 c 0,0.90189 -0.0205,1.63704 -0.0456,1.63364 -0.025,-0.003 -0.38885,-0.59815 -0.80843,-1.32169 z"
     id="path5170" />
  <path
     style="fill:#ffb17e;fill-opacity:1;stroke:none"
     d="m 44.161428,133.29564 c -2.09913,-3.64802 -4.05756,-7.08372 -4.35205,-7.63489 -0.2945,-0.55117 -1.88932,-3.33888 -3.54406,-6.19492 -1.65473,-2.85603 -4.26702,-7.36557 -5.805073,-10.02118 l -2.796468,-4.82838 1.122093,-0.055 c 0.74632,-0.0366 1.198926,0.0244 1.351521,0.1822 0.126185,0.13047 1.301751,2.10157 2.612367,4.38024 l 2.38294,4.14303 0,1.91523 0,1.91523 1.13877,0.004 1.13877,0.004 5.33529,9.28212 5.33529,9.28213 -0.0514,2.12986 -0.0514,2.12987 -3.81661,-6.63278 z"
     id="path5172" />
  <path
     style="fill:#ffb17e;fill-opacity:1;stroke:none"
     d="m 34.422068,132.42492 c -8.357618,-14.3477 -8.766821,-15.07662 -8.495737,-15.13364 0.225217,-0.0474 0.278425,-0.37607 0.278526,-1.72061 l 1.24e-4,-1.66204 0.879013,1.53949 c 0.483457,0.84671 1.647028,2.88427 2.585712,4.5279 0.938685,1.64363 3.235212,5.59648 5.103402,8.78413 1.86818,3.18764 3.49515,5.97909 3.61549,6.20322 0.21692,0.40404 0.20826,0.40749 -1.0175,0.40469 l -1.23628,-0.003 -1.71275,-2.94031 z"
     id="path5174" />
  <path
     style="fill:#ffb17e;fill-opacity:1;stroke:none"
     d="m 20.245024,107.94147 c -0.0956,-0.12526 -0.360588,-0.59672 -0.588861,-1.04767 -0.228272,-0.45095 -0.618837,-1.16837 -0.867922,-1.59427 l -0.452881,-0.77436 1.247186,0.002 1.247187,0.002 1.036,1.82015 1.036,1.82016 -1.241445,0 c -0.778983,0 -1.306195,-0.0848 -1.415264,-0.22775 l 0,0 z"
     id="path5176" />
  <path
     style="fill:#ffb17e;fill-opacity:1;stroke:none"
     d="m 16.320199,101.06058 c -0.275583,-0.49967 -0.50106,-0.94944 -0.50106,-0.99949 0,-0.05 0.245975,-0.091 0.54661,-0.091 0.541089,0 0.546611,0.0101 0.546611,1.002125 0,0.55117 -0.0205,1.00094 -0.04555,0.99949 -0.02505,-0.001 -0.271028,-0.41144 -0.54661,-0.91111 z"
     id="path5178" />
  <path
     style="fill:#ffb17e;fill-opacity:1;stroke:none"
     d="m 16.574967,117.66517 c -1.417824,-2.42269 -2.577862,-4.44712 -2.577862,-4.49872 0,-0.0516 0.551184,-0.0699 1.224854,-0.0407 1.219602,0.0529 1.22662,0.0562 1.636833,0.77159 0.321748,0.56112 0.412636,1.00371 0.414977,2.02073 l 0.003,1.30224 0.774365,0.004 0.774364,0.004 0.949323,1.65803 c 0.522128,0.91192 1.157562,1.93628 1.412077,2.27637 0.254514,0.34008 0.462753,0.68346 0.462753,0.76305 0,0.0796 -0.561785,0.14473 -1.24841,0.14473 l -1.24841,0 -2.577861,-4.40489 z"
     id="path5180" />
  <path
     style="fill:#ffb17e;fill-opacity:1;stroke:none"
     d="m 13.100458,107.81865 c 0,-0.21849 0.01142,-0.38517 0.02537,-0.37041 0.04492,0.0475 0.425557,0.70787 0.425557,0.73828 0,0.0162 -0.101459,0.0294 -0.225465,0.0294 l -0.225465,0 0,-0.39724 z"
     id="path5182" />
  <path
     style="fill:#ffb17d;fill-opacity:1;stroke:none"
     d="m 13.753051,128.78154 -0.844877,-1.46552 -4.86e-4,-0.62995 -4.86e-4,-0.62996 0.844899,0.018 0.8449,0.018 1.184287,2.05583 c 0.651358,1.1307 1.184287,2.06558 1.184287,2.0775 0,0.0119 -0.53272,0.0217 -1.183823,0.0217 l -1.183824,0 -0.844877,-1.46552 z"
     id="path5184" />
  <path
     style="fill:#ffb17e;fill-opacity:1;stroke:none"
     d="m 54.422328,134.90293 c -0.0534,-0.0629 -0.5572,-0.91153 -1.11962,-1.88586 l -1.02258,-1.77152 -0.0258,-0.49586 -0.0258,-0.49587 -0.26581,-0.0195 -0.26582,-0.0195 -2.32241,-4.02617 c -1.27733,-2.21439 -2.98823,-5.1712 -3.802,-6.5707 l -1.47958,-2.54453 -0.0187,-2.09298 c -0.0115,-1.29358 0.004,-2.06861 0.0413,-2.02919 0.033,0.0351 0.93279,1.57916 1.99957,3.43127 l 1.9396,3.36748 0,1.22024 0,1.22024 0.71616,0.0182 0.71615,0.0182 0.59495,1.03069 c 0.32722,0.56689 1.62491,2.81349 2.88376,4.99245 3.68102,6.37158 3.53574,6.10527 3.51418,6.44186 l -0.0186,0.28988 -0.97094,0.0177 c -0.86387,0.0158 -0.98164,0.005 -1.06798,-0.0966 l 0,0 z"
     id="path5186" />
  <path
     style="fill:#ff6600;fill-opacity:1;stroke:none"
     d="m 23.488739,129.65119 c -0.704835,-1.2045 -2.039019,-3.53605 -2.039019,-3.56328 0,-0.0154 0.531039,-0.0281 1.180087,-0.0281 l 1.180087,0 1.119218,1.94867 c 0.61557,1.07176 1.160435,2.01388 1.210811,2.0936 l 0.09159,0.14494 -1.197046,0 -1.197046,0 -0.348685,-0.59587 z"
     id="path5192" />
  <path
     style="fill:#ffb17e;fill-opacity:1;stroke:none"
     d="m 39.945218,158.13389 c -0.94076,-1.61208 -4.42612,-7.64246 -7.74526,-13.40086 l -6.034795,-10.46981 0,-1.99036 0,-1.99036 -1.186392,-0.037 -1.186393,-0.037 -1.132678,-1.97823 c -0.622973,-1.08803 -1.132678,-2.03225 -1.132678,-2.09827 0,-0.0684 0.534062,-0.10418 1.241619,-0.0832 l 1.241619,0.0369 5.016631,8.69652 c 2.759147,4.78308 5.149707,8.98639 5.312357,9.3407 0.16265,0.3543 1.65553,2.99224 3.31752,5.86209 1.662,2.86985 3.67656,6.34846 4.47681,7.73024 0.80025,1.38178 1.56885,2.70075 1.70799,2.93104 l 0.25299,0.41873 -1.21944,0 -1.21945,0 -1.71045,-2.93105 z"
     id="path5198" />
  <path
     style="fill:#ffb17e;fill-opacity:1;stroke:none"
     d="m 51.095168,145.20503 c -0.49602,-0.86744 -0.92109,-1.65215 -0.94459,-1.74381 -0.0329,-0.12808 0.1908,-0.1579 0.96628,-0.12884 l 1.00901,0.0378 0.0359,1.70709 c 0.0198,0.93891 -0.009,1.7066 -0.0644,1.706 -0.0552,-6.1e-4 -0.5062,-0.71083 -1.00223,-1.57826 z"
     id="path5200" />
  <path
     style="fill:#ffb17e;fill-opacity:1;stroke:none"
     d="m 56.747548,155.15881 c -0.58553,-0.96311 -3.79408,-6.57529 -3.86532,-6.76094 -0.0641,-0.16696 0.10012,-0.19627 1.0996,-0.19627 l 1.17492,0 0.43041,0.67639 c 0.23673,0.37202 0.67235,1.11892 0.96803,1.65977 l 0.53761,0.98337 -0.0356,2.04431 -0.0356,2.0443 -0.27414,-0.45093 z"
     id="path5202" />
  <path
     style="fill:#ffb17e;fill-opacity:1;stroke:none"
     d="m 45.104238,150.87785 c -1.59436,-2.77094 -3.09183,-5.37847 -3.32772,-5.79451 l -0.42888,-0.75644 1.25506,0.037 1.25506,0.037 1.41334,2.44791 c 2.55219,4.42036 3.07034,5.3859 2.93515,5.46945 -0.0756,0.0467 -0.14639,0.82607 -0.16715,1.83935 l -0.036,1.75831 -2.89884,-5.03807 z"
     id="path5204" />
  <path
     style="fill:#ffb17e;fill-opacity:1;stroke:none"
     d="m 29.978085,156.93032 c -0.290962,-0.45111 -7.806877,-13.52096 -7.806877,-13.57582 0,-0.0268 0.545151,-0.0487 1.211447,-0.0487 l 1.211447,0 1.345299,2.35128 c 0.739914,1.29321 2.513834,4.39003 3.942043,6.88184 1.42821,2.49181 2.596744,4.56448 2.596744,4.60593 0,0.0415 -0.52045,0.0754 -1.156565,0.0754 -1.058109,0 -1.172481,-0.0247 -1.343538,-0.28988 l 0,0 z"
     id="path5206" />
  <path
     style="fill:#ffb17e;fill-opacity:1;stroke:none"
     d="m 15.551788,148.04055 c -0.100923,-0.15944 -0.711016,-1.21238 -1.355761,-2.33988 l -1.172264,-2.05 0.0041,-2.07279 c 0.0045,-2.26565 0.02396,-2.2961 0.666748,-1.0421 0.14529,0.28344 1.158787,2.07046 2.252216,3.97114 1.09343,1.90069 2.019803,3.53854 2.058607,3.63966 0.05792,0.15093 -0.139007,0.18385 -1.099797,0.18385 -1.073434,0 -1.185544,-0.024 -1.353847,-0.28988 z"
     id="path5208" />
  <rect
     style="fill:#ffffff;fill-opacity:1;stroke:none"
     id="rect5331"
     width="9.0103121"
     height="5.3906302"
     x="35.153065"
     y="111.72734" />
  <rect
     style="fill:#ffffff;fill-opacity:1;stroke:none"
     id="rect5331-9"
     width="9.0103121"
     height="5.3906302"
     x="35.118347"
     y="138.87633" />
  <rect
     style="fill:#000000;fill-opacity:1;stroke:none"
     id="rect5492"
     width="62"
     height="53"
     x="4"
     y="36" />
  <g
     id="g5575"
     transform="translate(60.673729,-1.8220338)">
    <rect
       transform="matrix(0.70710678,-0.70710678,0.70710678,0.70710678,0,0)"
       y="41.623337"
       x="-23.807384"
       height="54.639153"
       width="8.7238979"
       id="rect5494"
       style="fill:#ffffff;fill-opacity:1;stroke:none" />
    <rect
       transform="matrix(0.70710678,0.70710678,-0.70710678,0.70710678,0,0)"
       y="-7.8741393"
       x="64.580956"
       height="54.639153"
       width="8.7238979"
       id="rect5494-6"
       style="fill:#ffffff;fill-opacity:1;stroke:none" />
  </g>
  <g
     id="g5579"
     transform="matrix(0.9,0,0,0.9,59.502119,0.05868724)">
    <rect
       transform="matrix(0.70710678,0.70710678,-0.70710678,0.70710678,0,0)"
       y="41.809212"
       x="22.307846"
       height="53"
       width="15"
       id="rect5551"
       style="fill:#ffffff;fill-opacity:1;stroke:none" />
    <rect
       transform="matrix(0.70710678,-0.70710678,0.70710678,0.70710678,0,0)"
       y="3.3078449"
       x="-75.809212"
       height="53"
       width="15"
       id="rect5551-5"
       style="fill:#ffffff;fill-opacity:1;stroke:none" />
  </g>
</svg>
